HIERARCHY
ROOT Hips
{
	OFFSET -0.179506 -22.333345 2.821913
	CHANNELS 6 Xposition Yposition Zposition Zrotation Yrotation Xrotation 
	JOINT LeftUpLeg
	{
		OFFSET 6.951974 -9.140623 -0.681533
		CHANNELS 3 Zrotation Yrotation Xrotation
		JOINT LeftLeg
		{
			OFFSET 3.427654 -37.519855 -0.449580
			CHANNELS 3 Zrotation Yrotation Xrotation
			JOINT LeftFoot
			{
				OFFSET -1.359570 -39.796059 -4.369333
				CHANNELS 3 Zrotation Yrotation Xrotation
				JOINT LeftToe
				{
					OFFSET 2.635814 -5.579078 11.928840
					CHANNELS 3 Zrotation Yrotation Xrotation
					End Site
					{
						OFFSET 0.000000 0.000000 0.000000
					}
				}
			}
		}
	}
	JOINT RightUpLeg
	{
		OFFSET -6.767048 -9.052170 -0.431982
		CHANNELS 3 Zrotation Yrotation Xrotation
		JOINT RightLeg
		{
			OFFSET -3.829005 -38.256897 -0.885003
			CHANNELS 3 Zrotation Yrotation Xrotation
			JOINT RightFoot
			{
				OFFSET 1.577377 -39.841461 -4.231180
				CHANNELS 3 Zrotation Yrotation Xrotation
				JOINT RightToe
				{
					OFFSET -2.537174 -4.814398 12.334795
					CHANNELS 3 Zrotation Yrotation Xrotation
					End Site
					{
						OFFSET 0.000000 0.000000 0.000000
					}
				}
			}
		}
	}
	JOINT Spine
	{
		OFFSET -0.253288 10.896323 -2.669631
		CHANNELS 3 Zrotation Yrotation Xrotation
		JOINT Spine1
		{
			OFFSET 0.548704 13.518043 0.109247
			CHANNELS 3 Zrotation Yrotation Xrotation
			JOINT Spine2
			{
				OFFSET 0.145701 5.292222 2.542457
				CHANNELS 3 Zrotation Yrotation Xrotation
				JOINT Neck
				{
					OFFSET -0.277840 21.387037 -4.285703
					CHANNELS 3 Zrotation Yrotation Xrotation
					JOINT Head
					{
						OFFSET 0.515184 6.496960 5.134897
						CHANNELS 3 Zrotation Yrotation Xrotation
						End Site
						{
							OFFSET 0.000000 0.000000 0.000000
						}
					}
				}
				JOINT LeftShoulder
				{
					OFFSET 7.884473 12.174932 -3.408961
					CHANNELS 3 Zrotation Yrotation Xrotation
					JOINT LeftArm
					{
						OFFSET 9.097692 3.046888 -0.886815
						CHANNELS 3 Zrotation Yrotation Xrotation
						JOINT LeftForeArm
						{
							OFFSET 25.961220 -1.277207 -2.745643
							CHANNELS 3 Zrotation Yrotation Xrotation
							JOINT LeftHand
							{
								OFFSET 24.923361 0.898606 -0.117091
								CHANNELS 3 Zrotation Yrotation Xrotation
								End Site
								{
									OFFSET 0.000000 0.000000 0.000000
								}
							}
						}
					}
				}
				JOINT RightShoulder
				{
					OFFSET -8.175920 11.883285 -3.861528
					CHANNELS 3 Zrotation Yrotation Xrotation
					JOINT RightArm
					{
						OFFSET -9.601238 3.255117 -0.914307
						CHANNELS 3 Zrotation Yrotation Xrotation
						JOINT RightForeArm
						{
							OFFSET -25.374195 -1.332924 -2.140099
							CHANNELS 3 Zrotation Yrotation Xrotation
							JOINT RightHand
							{
								OFFSET -25.529810 0.777228 -0.555919
								CHANNELS 3 Zrotation Yrotation Xrotation
								End Site
								{
									OFFSET 0.000000 0.000000 0.000000
								}
							}
						}
					}
				}
			}
		}
	}
}
MOTION
Frames: 12
Frame Time: 0.033333
-48.243999 -256.405121 98.018036 173.980937 -0.708954 92.041079 1.061444 -0.658998 1.989011 2.305228 -5.474732 -5.050203 -1.882180 7.723528 1.132380 nan nan nan 2.109898 -1.827816 1.178025 1.902124 0.635143 -0.565385 6.213588 -4.665425 2.099384 nan nan nan -1.086696 2.585017 2.151702 1.552585 -1.808517 1.998351 1.169026 -0.534252 -1.183690 0.641633 -0.554934 1.561258 5.635718 -1.260958 -1.779521 -18.469332 5.470511 -1.402401 -63.997715 -3.843739 15.087789 2.863202 -27.731248 1.054202 -11.056567 -17.180438 -8.871428 18.561225 -1.798720 -0.690038 62.450598 3.601164 14.996815 -6.637632 29.057716 -2.929935 10.533168 13.934046 -12.790299 
-48.112743 -256.432434 98.123306 173.742262 -0.973257 92.289225 0.771846 -0.718667 1.768935 2.358460 -5.480928 -4.962223 -1.874658 7.827220 0.844085 nan nan nan 1.889405 -1.755466 0.766707 1.839116 0.518205 -0.233050 6.152940 -4.404783 1.980905 nan nan nan -1.202861 2.629721 1.744711 1.334854 -1.698373 2.431512 0.903920 -0.247716 -1.681379 0.683352 -0.811943 1.784856 5.857628 -1.255868 -1.711839 -17.782277 5.702622 -1.485368 -64.067269 -4.196244 15.540944 2.122402 -26.686501 0.924377 -10.802976 -17.981997 -9.092612 17.808636 -0.875885 -0.795291 62.807556 4.915586 15.779456 -4.565710 24.781423 -2.864494 10.254734 14.920444 -13.205145 
-48.072903 -256.377136 98.166153 173.981366 -0.817707 91.896081 0.952567 -0.538961 2.104637 2.433668 -5.813446 -4.778567 -1.909765 7.632251 0.795834 nan nan nan 1.995589 -2.039664 1.460927 1.824098 0.543878 -0.542796 5.833719 -4.634158 1.617649 nan nan nan -1.031660 2.707938 2.106031 1.636784 -1.908364 2.906717 1.056935 -0.468896 -1.814482 0.384527 -0.400296 1.566194 5.606340 -1.369656 -2.228772 -19.091264 5.342839 -1.581765 -63.128918 -3.616525 14.821121 2.462031 -27.831703 0.464444 -11.464959 -16.965901 -8.319866 19.153657 -1.757897 -0.732443 61.677680 3.359993 14.531936 -6.513132 29.384010 -3.483984 10.890184 14.184001 -11.850059 
-48.066467 -256.427521 98.145790 174.765263 -0.848858 92.060185 0.830825 -1.195428 1.496637 2.727975 -5.901747 -4.210331 -2.584136 7.445994 0.664974 nan nan nan 1.936101 -2.247971 1.601154 2.193738 0.617109 -1.201710 6.227524 -4.821226 2.109432 nan nan nan -0.934757 2.707313 2.124262 1.679626 -2.251284 2.868166 1.084449 -0.674353 -1.810063 0.228726 -0.464375 1.229439 5.764456 -1.622719 -2.192411 -18.672186 5.402736 -1.730930 -63.823528 -3.922258 14.683420 2.393831 -27.178553 -0.101571 -12.250410 -17.564630 -8.588647 18.614667 -2.502618 -1.016332 61.995744 3.460039 14.134225 -5.925489 29.680663 -3.066849 11.510542 14.203185 -11.471239 
-48.010574 -256.375916 98.172272 174.775692 -0.822948 92.044329 0.871444 -1.248865 1.524232 2.734193 -5.661758 -4.212974 -3.128866 7.447834 0.524070 nan nan nan 2.524274 -2.079172 2.955159 1.217721 0.973598 -3.806943 6.452903 -5.176776 3.306643 nan nan nan -0.851686 2.833305 2.071823 1.727925 -2.405984 3.162567 1.095807 -0.612826 -2.012890 0.018058 -0.582902 1.327014 5.878046 -1.652658 -2.325272 -18.605252 5.464535 -1.728291 -64.078187 -3.967783 14.637600 2.593536 -26.940537 -0.504539 -12.716924 -17.646965 -8.411518 18.466186 -2.741107 -1.142700 62.039886 3.499362 13.947487 -5.677212 29.714278 -2.925926 12.124936 14.372906 -10.858137 
-47.911556 -256.348328 98.143745 174.820744 -0.545781 91.923994 1.389739 -1.025605 1.627782 2.696096 -5.563585 -4.226643 -5.235327 7.269430 -0.191925 nan nan nan 2.862448 -2.354189 3.288503 1.123948 0.432918 -4.004868 7.981957 -5.771087 0.741370 nan nan nan -0.520228 2.866535 2.307708 1.761198 -2.445131 3.140432 1.129548 -0.593076 -1.973391 0.030981 -0.219802 1.082553 5.901757 -1.874487 -2.163985 -18.031870 5.343126 -1.828295 -64.744406 -3.621498 14.285709 2.642544 -27.033128 -0.419032 -12.479418 -17.366478 -8.753255 18.142441 -3.013039 -1.360419 62.180533 3.594922 13.428673 -5.011533 29.915950 -2.112299 13.091947 14.660039 -10.170921 
-47.848019 -256.310852 98.100471 174.797985 -0.715816 91.870648 1.292508 -0.956676 1.675622 2.597022 -5.375677 -4.186868 -5.553856 7.152119 -0.371001 nan nan nan 2.655155 -2.622406 3.764461 1.147368 -0.689664 -4.487507 8.463424 -4.612702 0.557173 nan nan nan -0.546134 2.895074 2.504047 1.634641 -2.405539 2.843647 1.200006 -0.717091 -1.744838 -0.162474 -0.107714 1.083566 5.992085 -1.858631 -2.076676 -18.146950 5.221723 -1.717080 -64.606254 -3.545304 13.800958 2.437928 -27.153694 -0.047257 -12.320866 -17.724720 -9.060262 17.991994 -2.903855 -1.102029 62.272625 3.756107 13.235611 -4.920269 30.111937 -1.763308 13.332031 15.022047 -10.246613 
-47.793205 -256.292603 98.071419 174.847137 -0.823157 91.855957 1.205803 -1.025333 1.591199 2.655005 -5.338924 -3.983207 -5.934106 7.092526 -0.452588 nan nan nan 2.517529 -2.623501 3.858044 1.194429 -0.946955 -4.623386 8.769381 -4.341582 0.580708 nan nan nan -0.310096 2.910071 2.736787 1.573774 -2.291918 2.668112 1.257189 -0.970633 -1.533090 -0.729143 0.170773 0.719317 5.878357 -2.124738 -2.189828 -18.603893 5.400877 -2.000632 -64.297532 -3.602965 13.367665 2.064884 -26.951591 0.103336 -12.520382 -18.307076 -9.214051 17.520707 -3.180228 -1.083626 62.636942 4.068858 13.019123 -4.631210 30.284785 -1.273065 13.252551 15.200811 -9.872921 
-47.737183 -256.286499 98.065453 174.933472 -0.963643 91.909439 1.101361 -1.122468 1.397500 2.705173 -5.356798 -3.756805 -5.918071 7.065830 -0.500363 nan nan nan 2.389346 -2.731972 3.711461 1.192227 -0.986686 -4.433029 8.787763 -4.228149 0.543938 nan nan nan -0.349687 2.965491 2.836712 1.530701 -2.294287 2.528820 1.206725 -1.032352 -1.532909 -0.686837 0.192481 0.632457 5.816898 -2.015655 -1.998993 -18.584227 5.519149 -2.125511 -64.346250 -3.590949 13.446442 2.148846 -26.905542 0.182965 -12.497242 -18.365073 -9.034278 17.572903 -3.339393 -1.102535 62.661602 4.164612 12.967533 -4.586571 30.180811 -1.108096 13.089347 15.227151 -9.300667 
-47.670113 -256.283081 98.066559 174.983504 -1.063563 91.962981 1.044158 -1.154911 1.240713 2.894659 -5.457595 -3.668343 -5.892832 6.966170 -0.357835 nan nan nan 2.304446 -2.868206 3.515169 1.210987 -0.987965 -4.157671 8.862379 -4.163327 0.490545 nan nan nan -0.380972 2.998230 2.821017 1.545632 -2.363124 2.673727 1.116142 -1.013989 -1.663185 -0.581470 0.080410 0.577829 5.732817 -1.988051 -1.916864 -18.536394 5.660730 -2.239689 -64.416463 -3.624360 13.584515 2.214457 -26.866423 0.145584 -12.397177 -18.272240 -8.792827 17.668760 -3.442977 -1.180911 62.629403 4.226020 13.020186 -4.650398 30.108015 -1.167785 13.015347 15.182463 -8.932450 
-47.581032 -256.259155 98.045425 174.877525 -1.065530 91.958828 1.126698 -0.969970 1.226229 2.832759 -5.381173 -3.599933 -5.949066 7.031992 -0.484737 nan nan nan 2.357693 -2.860356 3.437148 1.181395 -0.962799 -3.983171 8.913383 -4.123110 0.347184 nan nan nan -0.366818 2.951281 2.828585 1.539332 -2.350392 2.730228 1.089057 -0.913345 -1.640815 -0.455780 0.000990 0.424168 5.632061 -1.949846 -1.780617 -18.464537 5.789659 -2.320696 -64.549166 -3.653676 13.633433 2.235433 -26.781225 0.200908 -12.052776 -18.348625 -8.901307 17.586421 -3.491508 -1.287317 62.747291 4.308659 13.125247 -4.659173 29.945045 -1.240864 12.973554 15.191326 -9.251471 
-47.490925 -256.236938 98.035912 174.749127 -1.077768 91.954702 1.182160 -0.854048 1.263943 2.814291 -5.308360 -3.612032 -5.909074 7.155346 -0.558766 nan nan nan 2.353402 -2.861995 3.394989 1.217313 -0.907759 -3.861786 8.886846 -4.071687 0.206550 nan nan nan -0.360076 2.922925 2.860666 1.505945 -2.310916 2.729990 1.066298 -0.806310 -1.624878 -0.393105 -0.004220 0.402435 5.654590 -1.937766 -1.749922 -18.386592 5.824075 -2.321352 -64.651661 -3.670884 13.597824 2.204682 -26.693291 -0.001198 -11.670151 -18.465703 -9.209307 17.524472 -3.503554 -1.346080 62.808519 4.330843 13.157458 -4.577967 29.830376 -1.456460 12.859714 15.055470 -9.771723 
